<?xml version="1.0" encoding="utf-8" standalone="no"?>
<!DOCTYPE svg PUBLIC "-//W3C//DTD SVG 1.1//EN" "http://www.w3.org/Graphics/SVG/1.1/DTD/svg11.dtd">
<svg width="1000px" height="1000px" version="1.1" xmlns="http://www.w3.org/2000/svg" xmlns:xlink="http://www.w3.org/1999/xlink">
<g id="bg">
<rect x="0" y="0" width="1000px" height="1000px" style="fill:rgb(255,255,255);"/>
</g>
<g id="ideograms">
<path d="M500.000,70.000 A430.000,430.000 40.000 0,1 542.147,72.071 L544.108,52.167 A450.000,450.000 0.000 0,0 500.000,50.000 Z" style="stroke-width:2.0;stroke:rgb(115,115,115);stroke-linecap:round;fill:rgb(71,161,249);" />
<text x="523.1" y="29.1" font-size="20.8px" font-family="CMUBright-Roman" style="text-anchor:middle;fill:rgb(0,0,0);" transform="rotate(362.8,523.1,29.1)" >Fp1</text>
<path d="M500.000,70.000 A430.000,430.000 40.000 0,1 542.147,72.071 L544.108,52.167 A450.000,450.000 0.000 0,0 500.000,50.000 Z" style="stroke-width:2.0;stroke:rgb(115,115,115);stroke-linecap:round;fill:none;" />
<path d="M542.147,72.071 A430.000,430.000 40.000 0,1 583.889,78.262 L587.791,58.647 A450.000,450.000 0.000 0,0 544.108,52.167 Z" style="stroke-width:2.0;stroke:rgb(115,115,115);stroke-linecap:round;fill:rgb(71,161,249);" />
<text x="569.2" y="33.6" font-size="20.8px" font-family="CMUBright-Roman" style="text-anchor:middle;fill:rgb(0,0,0);" transform="rotate(368.4,569.2,33.6)" >Fpz</text>
<path d="M542.147,72.071 A430.000,430.000 40.000 0,1 583.889,78.262 L587.791,58.647 A450.000,450.000 0.000 0,0 544.108,52.167 Z" style="stroke-width:2.0;stroke:rgb(115,115,115);stroke-linecap:round;fill:none;" />
<path d="M583.889,78.262 A430.000,430.000 40.000 0,1 624.822,88.516 L630.628,69.377 A450.000,450.000 0.000 0,0 587.791,58.647 Z" style="stroke-width:2.0;stroke:rgb(115,115,115);stroke-linecap:round;fill:rgb(71,161,249);" />
<text x="614.6" y="42.6" font-size="20.8px" font-family="CMUBright-Roman" style="text-anchor:middle;fill:rgb(0,0,0);" transform="rotate(374.1,614.6,42.6)" >Fp2</text>
<path d="M583.889,78.262 A430.000,430.000 40.000 0,1 624.822,88.516 L630.628,69.377 A450.000,450.000 0.000 0,0 587.791,58.647 Z" style="stroke-width:2.0;stroke:rgb(115,115,115);stroke-linecap:round;fill:none;" />
<path d="M624.822,88.516 A430.000,430.000 40.000 0,1 664.554,102.732 L672.208,84.254 A450.000,450.000 0.000 0,0 630.628,69.377 Z" style="stroke-width:2.0;stroke:rgb(115,115,115);stroke-linecap:round;fill:rgb(71,161,249);" />
<text x="658.8" y="56.1" font-size="20.8px" font-family="CMUBright-Roman" style="text-anchor:middle;fill:rgb(0,0,0);" transform="rotate(379.7,658.8,56.1)" >AF7</text>
<path d="M624.822,88.516 A430.000,430.000 40.000 0,1 664.554,102.732 L672.208,84.254 A450.000,450.000 0.000 0,0 630.628,69.377 Z" style="stroke-width:2.0;stroke:rgb(115,115,115);stroke-linecap:round;fill:none;" />
<path d="M664.554,102.732 A430.000,430.000 40.000 0,1 702.701,120.774 L712.129,103.135 A450.000,450.000 0.000 0,0 672.208,84.254 Z" style="stroke-width:2.0;stroke:rgb(115,115,115);stroke-linecap:round;fill:rgb(71,161,249);" />
<text x="701.6" y="73.8" font-size="20.8px" font-family="CMUBright-Roman" style="text-anchor:middle;fill:rgb(0,0,0);" transform="rotate(385.3,701.6,73.8)" >AF3</text>
<path d="M664.554,102.732 A430.000,430.000 40.000 0,1 702.701,120.774 L712.129,103.135 A450.000,450.000 0.000 0,0 672.208,84.254 Z" style="stroke-width:2.0;stroke:rgb(115,115,115);stroke-linecap:round;fill:none;" />
<path d="M702.701,120.774 A430.000,430.000 40.000 0,1 738.895,142.468 L750.007,125.839 A450.000,450.000 0.000 0,0 712.129,103.135 Z" style="stroke-width:2.0;stroke:rgb(115,115,115);stroke-linecap:round;fill:rgb(71,161,249);" />
<text x="742.4" y="95.6" font-size="20.8px" font-family="CMUBright-Roman" style="text-anchor:middle;fill:rgb(0,0,0);" transform="rotate(390.9,742.4,95.6)" >AFz</text>
<path d="M702.701,120.774 A430.000,430.000 40.000 0,1 738.895,142.468 L750.007,125.839 A450.000,450.000 0.000 0,0 712.129,103.135 Z" style="stroke-width:2.0;stroke:rgb(115,115,115);stroke-linecap:round;fill:none;" />
<path d="M738.895,142.468 A430.000,430.000 40.000 0,1 772.789,167.606 L785.477,152.145 A450.000,450.000 0.000 0,0 750.007,125.839 Z" style="stroke-width:2.0;stroke:rgb(115,115,115);stroke-linecap:round;fill:rgb(71,161,249);" />
<text x="780.9" y="121.3" font-size="20.8px" font-family="CMUBright-Roman" style="text-anchor:middle;fill:rgb(0,0,0);" transform="rotate(396.6,780.9,121.3)" >AF4</text>
<path d="M738.895,142.468 A430.000,430.000 40.000 0,1 772.789,167.606 L785.477,152.145 A450.000,450.000 0.000 0,0 750.007,125.839 Z" style="stroke-width:2.0;stroke:rgb(115,115,115);stroke-linecap:round;fill:none;" />
<path d="M772.789,167.606 A430.000,430.000 40.000 0,1 804.056,195.944 L818.198,181.802 A450.000,450.000 0.000 0,0 785.477,152.145 Z" style="stroke-width:2.0;stroke:rgb(115,115,115);stroke-linecap:round;fill:rgb(71,161,249);" />
<text x="816.6" y="150.6" font-size="20.8px" font-family="CMUBright-Roman" style="text-anchor:middle;fill:rgb(0,0,0);" transform="rotate(402.2,816.6,150.6)" >AF8</text>
<path d="M772.789,167.606 A430.000,430.000 40.000 0,1 804.056,195.944 L818.198,181.802 A450.000,450.000 0.000 0,0 785.477,152.145 Z" style="stroke-width:2.0;stroke:rgb(115,115,115);stroke-linecap:round;fill:none;" />
<path d="M804.056,195.944 A430.000,430.000 40.000 0,1 832.394,227.211 L847.855,214.523 A450.000,450.000 0.000 0,0 818.198,181.802 Z" style="stroke-width:2.0;stroke:rgb(115,115,115);stroke-linecap:round;fill:rgb(71,161,249);" />
<text x="849.4" y="183.4" font-size="20.8px" font-family="CMUBright-Roman" style="text-anchor:middle;fill:rgb(0,0,0);" transform="rotate(407.8,849.4,183.4)" >F7</text>
<path d="M804.056,195.944 A430.000,430.000 40.000 0,1 832.394,227.211 L847.855,214.523 A450.000,450.000 0.000 0,0 818.198,181.802 Z" style="stroke-width:2.0;stroke:rgb(115,115,115);stroke-linecap:round;fill:none;" />
<path d="M832.394,227.211 A430.000,430.000 40.000 0,1 857.532,261.105 L874.161,249.993 A450.000,450.000 0.000 0,0 847.855,214.523 Z" style="stroke-width:2.0;stroke:rgb(115,115,115);stroke-linecap:round;fill:rgb(71,161,249);" />
<text x="878.7" y="219.1" font-size="20.8px" font-family="CMUBright-Roman" style="text-anchor:middle;fill:rgb(0,0,0);" transform="rotate(413.4,878.7,219.1)" >F5</text>
<path d="M832.394,227.211 A430.000,430.000 40.000 0,1 857.532,261.105 L874.161,249.993 A450.000,450.000 0.000 0,0 847.855,214.523 Z" style="stroke-width:2.0;stroke:rgb(115,115,115);stroke-linecap:round;fill:none;" />
<path d="M857.532,261.105 A430.000,430.000 40.000 0,1 879.226,297.299 L896.865,287.871 A450.000,450.000 0.000 0,0 874.161,249.993 Z" style="stroke-width:2.0;stroke:rgb(115,115,115);stroke-linecap:round;fill:rgb(71,161,249);" />
<text x="904.4" y="257.6" font-size="20.8px" font-family="CMUBright-Roman" style="text-anchor:middle;fill:rgb(0,0,0);" transform="rotate(419.1,904.4,257.6)" >F3</text>
<path d="M857.532,261.105 A430.000,430.000 40.000 0,1 879.226,297.299 L896.865,287.871 A450.000,450.000 0.000 0,0 874.161,249.993 Z" style="stroke-width:2.0;stroke:rgb(115,115,115);stroke-linecap:round;fill:none;" />
<path d="M879.226,297.299 A430.000,430.000 40.000 0,1 897.268,335.446 L915.746,327.792 A450.000,450.000 0.000 0,0 896.865,287.871 Z" style="stroke-width:2.0;stroke:rgb(115,115,115);stroke-linecap:round;fill:rgb(71,161,249);" />
<text x="926.2" y="298.4" font-size="20.8px" font-family="CMUBright-Roman" style="text-anchor:middle;fill:rgb(0,0,0);" transform="rotate(424.7,926.2,298.4)" >F1</text>
<path d="M879.226,297.299 A430.000,430.000 40.000 0,1 897.268,335.446 L915.746,327.792 A450.000,450.000 0.000 0,0 896.865,287.871 Z" style="stroke-width:2.0;stroke:rgb(115,115,115);stroke-linecap:round;fill:none;" />
<path d="M897.268,335.446 A430.000,430.000 40.000 0,1 911.484,375.178 L930.623,369.372 A450.000,450.000 0.000 0,0 915.746,327.792 Z" style="stroke-width:2.0;stroke:rgb(115,115,115);stroke-linecap:round;fill:rgb(71,161,249);" />
<text x="943.9" y="341.2" font-size="20.8px" font-family="CMUBright-Roman" style="text-anchor:middle;fill:rgb(0,0,0);" transform="rotate(430.3,943.9,341.2)" >Fz</text>
<path d="M897.268,335.446 A430.000,430.000 40.000 0,1 911.484,375.178 L930.623,369.372 A450.000,450.000 0.000 0,0 915.746,327.792 Z" style="stroke-width:2.0;stroke:rgb(115,115,115);stroke-linecap:round;fill:none;" />
<path d="M911.484,375.178 A430.000,430.000 40.000 0,1 921.738,416.111 L941.353,412.209 A450.000,450.000 0.000 0,0 930.623,369.372 Z" style="stroke-width:2.0;stroke:rgb(115,115,115);stroke-linecap:round;fill:rgb(71,161,249);" />
<text x="957.4" y="385.4" font-size="20.8px" font-family="CMUBright-Roman" style="text-anchor:middle;fill:rgb(0,0,0);" transform="rotate(435.9,957.4,385.4)" >F2</text>
<path d="M911.484,375.178 A430.000,430.000 40.000 0,1 921.738,416.111 L941.353,412.209 A450.000,450.000 0.000 0,0 930.623,369.372 Z" style="stroke-width:2.0;stroke:rgb(115,115,115);stroke-linecap:round;fill:none;" />
<path d="M921.738,416.111 A430.000,430.000 40.000 0,1 927.929,457.853 L947.833,455.892 A450.000,450.000 0.000 0,0 941.353,412.209 Z" style="stroke-width:2.0;stroke:rgb(115,115,115);stroke-linecap:round;fill:rgb(71,161,249);" />
<text x="966.4" y="430.8" font-size="20.8px" font-family="CMUBright-Roman" style="text-anchor:middle;fill:rgb(0,0,0);" transform="rotate(441.6,966.4,430.8)" >F4</text>
<path d="M921.738,416.111 A430.000,430.000 40.000 0,1 927.929,457.853 L947.833,455.892 A450.000,450.000 0.000 0,0 941.353,412.209 Z" style="stroke-width:2.0;stroke:rgb(115,115,115);stroke-linecap:round;fill:none;" />
<path d="M927.929,457.853 A430.000,430.000 40.000 0,1 930.000,500.000 L950.000,500.000 A450.000,450.000 0.000 0,0 947.833,455.892 Z" style="stroke-width:2.0;stroke:rgb(115,115,115);stroke-linecap:round;fill:rgb(71,161,249);" />
<text x="970.9" y="476.9" font-size="20.8px" font-family="CMUBright-Roman" style="text-anchor:middle;fill:rgb(0,0,0);" transform="rotate(447.2,970.9,476.9)" >F6</text>
<path d="M927.929,457.853 A430.000,430.000 40.000 0,1 930.000,500.000 L950.000,500.000 A450.000,450.000 0.000 0,0 947.833,455.892 Z" style="stroke-width:2.0;stroke:rgb(115,115,115);stroke-linecap:round;fill:none;" />
<path d="M930.000,500.000 A430.000,430.000 40.000 0,1 927.929,542.147 L947.833,544.108 A450.000,450.000 0.000 0,0 950.000,500.000 Z" style="stroke-width:2.0;stroke:rgb(115,115,115);stroke-linecap:round;fill:rgb(71,161,249);" />
<text x="986.9" y="523.9" font-size="20.8px" font-family="CMUBright-Roman" style="text-anchor:middle;fill:rgb(0,0,0);" transform="rotate(-87.2,986.9,523.9)" >F8</text>
<path d="M930.000,500.000 A430.000,430.000 40.000 0,1 927.929,542.147 L947.833,544.108 A450.000,450.000 0.000 0,0 950.000,500.000 Z" style="stroke-width:2.0;stroke:rgb(115,115,115);stroke-linecap:round;fill:none;" />
<path d="M927.929,542.147 A430.000,430.000 40.000 0,1 921.738,583.889 L941.353,587.791 A450.000,450.000 0.000 0,0 947.833,544.108 Z" style="stroke-width:2.0;stroke:rgb(115,115,115);stroke-linecap:round;fill:rgb(130,213,83);" />
<text x="982.2" y="571.5" font-size="20.8px" font-family="CMUBright-Roman" style="text-anchor:middle;fill:rgb(0,0,0);" transform="rotate(-81.6,982.2,571.5)" >FT7</text>
<path d="M927.929,542.147 A430.000,430.000 40.000 0,1 921.738,583.889 L941.353,587.791 A450.000,450.000 0.000 0,0 947.833,544.108 Z" style="stroke-width:2.0;stroke:rgb(115,115,115);stroke-linecap:round;fill:none;" />
<path d="M921.738,583.889 A430.000,430.000 40.000 0,1 911.484,624.822 L930.623,630.628 A450.000,450.000 0.000 0,0 941.353,587.791 Z" style="stroke-width:2.0;stroke:rgb(115,115,115);stroke-linecap:round;fill:rgb(130,213,83);" />
<text x="972.9" y="618.5" font-size="20.8px" font-family="CMUBright-Roman" style="text-anchor:middle;fill:rgb(0,0,0);" transform="rotate(-75.9,972.9,618.5)" >FC5</text>
<path d="M921.738,583.889 A430.000,430.000 40.000 0,1 911.484,624.822 L930.623,630.628 A450.000,450.000 0.000 0,0 941.353,587.791 Z" style="stroke-width:2.0;stroke:rgb(115,115,115);stroke-linecap:round;fill:none;" />
<path d="M911.484,624.822 A430.000,430.000 40.000 0,1 897.268,664.554 L915.746,672.208 A450.000,450.000 0.000 0,0 930.623,630.628 Z" style="stroke-width:2.0;stroke:rgb(115,115,115);stroke-linecap:round;fill:rgb(130,213,83);" />
<text x="959.0" y="664.2" font-size="20.8px" font-family="CMUBright-Roman" style="text-anchor:middle;fill:rgb(0,0,0);" transform="rotate(-70.3,959.0,664.2)" >FC3</text>
<path d="M911.484,624.822 A430.000,430.000 40.000 0,1 897.268,664.554 L915.746,672.208 A450.000,450.000 0.000 0,0 930.623,630.628 Z" style="stroke-width:2.0;stroke:rgb(115,115,115);stroke-linecap:round;fill:none;" />
<path d="M897.268,664.554 A430.000,430.000 40.000 0,1 879.226,702.701 L896.865,712.129 A450.000,450.000 0.000 0,0 915.746,672.208 Z" style="stroke-width:2.0;stroke:rgb(115,115,115);stroke-linecap:round;fill:rgb(130,213,83);" />
<text x="940.7" y="708.4" font-size="20.8px" font-family="CMUBright-Roman" style="text-anchor:middle;fill:rgb(0,0,0);" transform="rotate(-64.7,940.7,708.4)" >FC1</text>
<path d="M897.268,664.554 A430.000,430.000 40.000 0,1 879.226,702.701 L896.865,712.129 A450.000,450.000 0.000 0,0 915.746,672.208 Z" style="stroke-width:2.0;stroke:rgb(115,115,115);stroke-linecap:round;fill:none;" />
<path d="M879.226,702.701 A430.000,430.000 40.000 0,1 857.532,738.895 L874.161,750.007 A450.000,450.000 0.000 0,0 896.865,712.129 Z" style="stroke-width:2.0;stroke:rgb(115,115,115);stroke-linecap:round;fill:rgb(130,213,83);" />
<text x="918.1" y="750.6" font-size="20.8px" font-family="CMUBright-Roman" style="text-anchor:middle;fill:rgb(0,0,0);" transform="rotate(-59.1,918.1,750.6)" >FCz</text>
<path d="M879.226,702.701 A430.000,430.000 40.000 0,1 857.532,738.895 L874.161,750.007 A450.000,450.000 0.000 0,0 896.865,712.129 Z" style="stroke-width:2.0;stroke:rgb(115,115,115);stroke-linecap:round;fill:none;" />
<path d="M857.532,738.895 A430.000,430.000 40.000 0,1 832.394,772.789 L847.855,785.477 A450.000,450.000 0.000 0,0 874.161,750.007 Z" style="stroke-width:2.0;stroke:rgb(115,115,115);stroke-linecap:round;fill:rgb(130,213,83);" />
<text x="891.6" y="790.4" font-size="20.8px" font-family="CMUBright-Roman" style="text-anchor:middle;fill:rgb(0,0,0);" transform="rotate(-53.4,891.6,790.4)" >FC2</text>
<path d="M857.532,738.895 A430.000,430.000 40.000 0,1 832.394,772.789 L847.855,785.477 A450.000,450.000 0.000 0,0 874.161,750.007 Z" style="stroke-width:2.0;stroke:rgb(115,115,115);stroke-linecap:round;fill:none;" />
<path d="M832.394,772.789 A430.000,430.000 40.000 0,1 804.056,804.056 L818.198,818.198 A450.000,450.000 0.000 0,0 847.855,785.477 Z" style="stroke-width:2.0;stroke:rgb(115,115,115);stroke-linecap:round;fill:rgb(130,213,83);" />
<text x="861.2" y="827.4" font-size="20.8px" font-family="CMUBright-Roman" style="text-anchor:middle;fill:rgb(0,0,0);" transform="rotate(-47.8,861.2,827.4)" >FC4</text>
<path d="M832.394,772.789 A430.000,430.000 40.000 0,1 804.056,804.056 L818.198,818.198 A450.000,450.000 0.000 0,0 847.855,785.477 Z" style="stroke-width:2.0;stroke:rgb(115,115,115);stroke-linecap:round;fill:none;" />
<path d="M804.056,804.056 A430.000,430.000 40.000 0,1 772.789,832.394 L785.477,847.855 A450.000,450.000 0.000 0,0 818.198,818.198 Z" style="stroke-width:2.0;stroke:rgb(115,115,115);stroke-linecap:round;fill:rgb(130,213,83);" />
<text x="827.4" y="861.2" font-size="20.8px" font-family="CMUBright-Roman" style="text-anchor:middle;fill:rgb(0,0,0);" transform="rotate(-42.2,827.4,861.2)" >FC6</text>
<path d="M804.056,804.056 A430.000,430.000 40.000 0,1 772.789,832.394 L785.477,847.855 A450.000,450.000 0.000 0,0 818.198,818.198 Z" style="stroke-width:2.0;stroke:rgb(115,115,115);stroke-linecap:round;fill:none;" />
<path d="M772.789,832.394 A430.000,430.000 40.000 0,1 738.895,857.532 L750.007,874.161 A450.000,450.000 0.000 0,0 785.477,847.855 Z" style="stroke-width:2.0;stroke:rgb(115,115,115);stroke-linecap:round;fill:rgb(130,213,83);" />
<text x="790.4" y="891.6" font-size="20.8px" font-family="CMUBright-Roman" style="text-anchor:middle;fill:rgb(0,0,0);" transform="rotate(-36.6,790.4,891.6)" >FT8</text>
<path d="M772.789,832.394 A430.000,430.000 40.000 0,1 738.895,857.532 L750.007,874.161 A450.000,450.000 0.000 0,0 785.477,847.855 Z" style="stroke-width:2.0;stroke:rgb(115,115,115);stroke-linecap:round;fill:none;" />
<path d="M738.895,857.532 A430.000,430.000 40.000 0,1 702.701,879.226 L712.129,896.865 A450.000,450.000 0.000 0,0 750.007,874.161 Z" style="stroke-width:2.0;stroke:rgb(115,115,115);stroke-linecap:round;fill:rgb(130,213,83);" />
<text x="750.6" y="918.1" font-size="20.8px" font-family="CMUBright-Roman" style="text-anchor:middle;fill:rgb(0,0,0);" transform="rotate(-30.9,750.6,918.1)" >T7</text>
<path d="M738.895,857.532 A430.000,430.000 40.000 0,1 702.701,879.226 L712.129,896.865 A450.000,450.000 0.000 0,0 750.007,874.161 Z" style="stroke-width:2.0;stroke:rgb(115,115,115);stroke-linecap:round;fill:none;" />
<path d="M702.701,879.226 A430.000,430.000 40.000 0,1 664.554,897.268 L672.208,915.746 A450.000,450.000 0.000 0,0 712.129,896.865 Z" style="stroke-width:2.0;stroke:rgb(115,115,115);stroke-linecap:round;fill:rgb(130,213,83);" />
<text x="708.4" y="940.7" font-size="20.8px" font-family="CMUBright-Roman" style="text-anchor:middle;fill:rgb(0,0,0);" transform="rotate(-25.3,708.4,940.7)" >C5</text>
<path d="M702.701,879.226 A430.000,430.000 40.000 0,1 664.554,897.268 L672.208,915.746 A450.000,450.000 0.000 0,0 712.129,896.865 Z" style="stroke-width:2.0;stroke:rgb(115,115,115);stroke-linecap:round;fill:none;" />
<path d="M664.554,897.268 A430.000,430.000 40.000 0,1 624.822,911.484 L630.628,930.623 A450.000,450.000 0.000 0,0 672.208,915.746 Z" style="stroke-width:2.0;stroke:rgb(115,115,115);stroke-linecap:round;fill:rgb(130,213,83);" />
<text x="664.2" y="959.0" font-size="20.8px" font-family="CMUBright-Roman" style="text-anchor:middle;fill:rgb(0,0,0);" transform="rotate(-19.7,664.2,959.0)" >C3</text>
<path d="M664.554,897.268 A430.000,430.000 40.000 0,1 624.822,911.484 L630.628,930.623 A450.000,450.000 0.000 0,0 672.208,915.746 Z" style="stroke-width:2.0;stroke:rgb(115,115,115);stroke-linecap:round;fill:none;" />
<path d="M624.822,911.484 A430.000,430.000 40.000 0,1 583.889,921.738 L587.791,941.353 A450.000,450.000 0.000 0,0 630.628,930.623 Z" style="stroke-width:2.0;stroke:rgb(115,115,115);stroke-linecap:round;fill:rgb(130,213,83);" />
<text x="618.5" y="972.9" font-size="20.8px" font-family="CMUBright-Roman" style="text-anchor:middle;fill:rgb(0,0,0);" transform="rotate(-14.1,618.5,972.9)" >C1</text>
<path d="M624.822,911.484 A430.000,430.000 40.000 0,1 583.889,921.738 L587.791,941.353 A450.000,450.000 0.000 0,0 630.628,930.623 Z" style="stroke-width:2.0;stroke:rgb(115,115,115);stroke-linecap:round;fill:none;" />
<path d="M583.889,921.738 A430.000,430.000 40.000 0,1 542.147,927.929 L544.108,947.833 A450.000,450.000 0.000 0,0 587.791,941.353 Z" style="stroke-width:2.0;stroke:rgb(115,115,115);stroke-linecap:round;fill:rgb(130,213,83);" />
<text x="571.5" y="982.2" font-size="20.8px" font-family="CMUBright-Roman" style="text-anchor:middle;fill:rgb(0,0,0);" transform="rotate(-8.4,571.5,982.2)" >Cz</text>
<path d="M583.889,921.738 A430.000,430.000 40.000 0,1 542.147,927.929 L544.108,947.833 A450.000,450.000 0.000 0,0 587.791,941.353 Z" style="stroke-width:2.0;stroke:rgb(115,115,115);stroke-linecap:round;fill:none;" />
<path d="M542.147,927.929 A430.000,430.000 40.000 0,1 500.000,930.000 L500.000,950.000 A450.000,450.000 0.000 0,0 544.108,947.833 Z" style="stroke-width:2.0;stroke:rgb(115,115,115);stroke-linecap:round;fill:rgb(130,213,83);" />
<text x="523.9" y="986.9" font-size="20.8px" font-family="CMUBright-Roman" style="text-anchor:middle;fill:rgb(0,0,0);" transform="rotate(-2.8,523.9,986.9)" >C2</text>
<path d="M542.147,927.929 A430.000,430.000 40.000 0,1 500.000,930.000 L500.000,950.000 A450.000,450.000 0.000 0,0 544.108,947.833 Z" style="stroke-width:2.0;stroke:rgb(115,115,115);stroke-linecap:round;fill:none;" />
<path d="M500.000,930.000 A430.000,430.000 40.000 0,1 457.853,927.929 L455.892,947.833 A450.000,450.000 0.000 0,0 500.000,950.000 Z" style="stroke-width:2.0;stroke:rgb(115,115,115);stroke-linecap:round;fill:rgb(130,213,83);" />
<text x="476.1" y="986.9" font-size="20.8px" font-family="CMUBright-Roman" style="text-anchor:middle;fill:rgb(0,0,0);" transform="rotate(2.8,476.1,986.9)" >C4</text>
<path d="M500.000,930.000 A430.000,430.000 40.000 0,1 457.853,927.929 L455.892,947.833 A450.000,450.000 0.000 0,0 500.000,950.000 Z" style="stroke-width:2.0;stroke:rgb(115,115,115);stroke-linecap:round;fill:none;" />
<path d="M457.853,927.929 A430.000,430.000 40.000 0,1 416.111,921.738 L412.209,941.353 A450.000,450.000 0.000 0,0 455.892,947.833 Z" style="stroke-width:2.0;stroke:rgb(115,115,115);stroke-linecap:round;fill:rgb(130,213,83);" />
<text x="428.5" y="982.2" font-size="20.8px" font-family="CMUBright-Roman" style="text-anchor:middle;fill:rgb(0,0,0);" transform="rotate(8.4,428.5,982.2)" >C6</text>
<path d="M457.853,927.929 A430.000,430.000 40.000 0,1 416.111,921.738 L412.209,941.353 A450.000,450.000 0.000 0,0 455.892,947.833 Z" style="stroke-width:2.0;stroke:rgb(115,115,115);stroke-linecap:round;fill:none;" />
<path d="M416.111,921.738 A430.000,430.000 40.000 0,1 375.178,911.484 L369.372,930.623 A450.000,450.000 0.000 0,0 412.209,941.353 Z" style="stroke-width:2.0;stroke:rgb(115,115,115);stroke-linecap:round;fill:rgb(130,213,83);" />
<text x="381.5" y="972.9" font-size="20.8px" font-family="CMUBright-Roman" style="text-anchor:middle;fill:rgb(0,0,0);" transform="rotate(14.1,381.5,972.9)" >T8</text>
<path d="M416.111,921.738 A430.000,430.000 40.000 0,1 375.178,911.484 L369.372,930.623 A450.000,450.000 0.000 0,0 412.209,941.353 Z" style="stroke-width:2.0;stroke:rgb(115,115,115);stroke-linecap:round;fill:none;" />
<path d="M375.178,911.484 A430.000,430.000 40.000 0,1 335.446,897.268 L327.792,915.746 A450.000,450.000 0.000 0,0 369.372,930.623 Z" style="stroke-width:2.0;stroke:rgb(115,115,115);stroke-linecap:round;fill:rgb(130,213,83);" />
<text x="335.8" y="959.0" font-size="20.8px" font-family="CMUBright-Roman" style="text-anchor:middle;fill:rgb(0,0,0);" transform="rotate(19.7,335.8,959.0)" >TP7</text>
<path d="M375.178,911.484 A430.000,430.000 40.000 0,1 335.446,897.268 L327.792,915.746 A450.000,450.000 0.000 0,0 369.372,930.623 Z" style="stroke-width:2.0;stroke:rgb(115,115,115);stroke-linecap:round;fill:none;" />
<path d="M335.446,897.268 A430.000,430.000 40.000 0,1 297.299,879.226 L287.871,896.865 A450.000,450.000 0.000 0,0 327.792,915.746 Z" style="stroke-width:2.0;stroke:rgb(115,115,115);stroke-linecap:round;fill:rgb(130,213,83);" />
<text x="291.6" y="940.7" font-size="20.8px" font-family="CMUBright-Roman" style="text-anchor:middle;fill:rgb(0,0,0);" transform="rotate(25.3,291.6,940.7)" >CP5</text>
<path d="M335.446,897.268 A430.000,430.000 40.000 0,1 297.299,879.226 L287.871,896.865 A450.000,450.000 0.000 0,0 327.792,915.746 Z" style="stroke-width:2.0;stroke:rgb(115,115,115);stroke-linecap:round;fill:none;" />
<path d="M297.299,879.226 A430.000,430.000 40.000 0,1 261.105,857.532 L249.993,874.161 A450.000,450.000 0.000 0,0 287.871,896.865 Z" style="stroke-width:2.0;stroke:rgb(115,115,115);stroke-linecap:round;fill:rgb(130,213,83);" />
<text x="249.4" y="918.1" font-size="20.8px" font-family="CMUBright-Roman" style="text-anchor:middle;fill:rgb(0,0,0);" transform="rotate(30.9,249.4,918.1)" >CP3</text>
<path d="M297.299,879.226 A430.000,430.000 40.000 0,1 261.105,857.532 L249.993,874.161 A450.000,450.000 0.000 0,0 287.871,896.865 Z" style="stroke-width:2.0;stroke:rgb(115,115,115);stroke-linecap:round;fill:none;" />
<path d="M261.105,857.532 A430.000,430.000 40.000 0,1 227.211,832.394 L214.523,847.855 A450.000,450.000 0.000 0,0 249.993,874.161 Z" style="stroke-width:2.0;stroke:rgb(115,115,115);stroke-linecap:round;fill:rgb(130,213,83);" />
<text x="209.6" y="891.6" font-size="20.8px" font-family="CMUBright-Roman" style="text-anchor:middle;fill:rgb(0,0,0);" transform="rotate(36.6,209.6,891.6)" >CP1</text>
<path d="M261.105,857.532 A430.000,430.000 40.000 0,1 227.211,832.394 L214.523,847.855 A450.000,450.000 0.000 0,0 249.993,874.161 Z" style="stroke-width:2.0;stroke:rgb(115,115,115);stroke-linecap:round;fill:none;" />
<path d="M227.211,832.394 A430.000,430.000 40.000 0,1 195.944,804.056 L181.802,818.198 A450.000,450.000 0.000 0,0 214.523,847.855 Z" style="stroke-width:2.0;stroke:rgb(115,115,115);stroke-linecap:round;fill:rgb(130,213,83);" />
<text x="172.6" y="861.2" font-size="20.8px" font-family="CMUBright-Roman" style="text-anchor:middle;fill:rgb(0,0,0);" transform="rotate(42.2,172.6,861.2)" >CPz</text>
<path d="M227.211,832.394 A430.000,430.000 40.000 0,1 195.944,804.056 L181.802,818.198 A450.000,450.000 0.000 0,0 214.523,847.855 Z" style="stroke-width:2.0;stroke:rgb(115,115,115);stroke-linecap:round;fill:none;" />
<path d="M195.944,804.056 A430.000,430.000 40.000 0,1 167.606,772.789 L152.145,785.477 A450.000,450.000 0.000 0,0 181.802,818.198 Z" style="stroke-width:2.0;stroke:rgb(115,115,115);stroke-linecap:round;fill:rgb(130,213,83);" />
<text x="138.8" y="827.4" font-size="20.8px" font-family="CMUBright-Roman" style="text-anchor:middle;fill:rgb(0,0,0);" transform="rotate(47.8,138.8,827.4)" >CP2</text>
<path d="M195.944,804.056 A430.000,430.000 40.000 0,1 167.606,772.789 L152.145,785.477 A450.000,450.000 0.000 0,0 181.802,818.198 Z" style="stroke-width:2.0;stroke:rgb(115,115,115);stroke-linecap:round;fill:none;" />
<path d="M167.606,772.789 A430.000,430.000 40.000 0,1 142.468,738.895 L125.839,750.007 A450.000,450.000 0.000 0,0 152.145,785.477 Z" style="stroke-width:2.0;stroke:rgb(115,115,115);stroke-linecap:round;fill:rgb(130,213,83);" />
<text x="108.4" y="790.4" font-size="20.8px" font-family="CMUBright-Roman" style="text-anchor:middle;fill:rgb(0,0,0);" transform="rotate(53.4,108.4,790.4)" >CP4</text>
<path d="M167.606,772.789 A430.000,430.000 40.000 0,1 142.468,738.895 L125.839,750.007 A450.000,450.000 0.000 0,0 152.145,785.477 Z" style="stroke-width:2.0;stroke:rgb(115,115,115);stroke-linecap:round;fill:none;" />
<path d="M142.468,738.895 A430.000,430.000 40.000 0,1 120.774,702.701 L103.135,712.129 A450.000,450.000 0.000 0,0 125.839,750.007 Z" style="stroke-width:2.0;stroke:rgb(115,115,115);stroke-linecap:round;fill:rgb(130,213,83);" />
<text x="81.9" y="750.6" font-size="20.8px" font-family="CMUBright-Roman" style="text-anchor:middle;fill:rgb(0,0,0);" transform="rotate(59.1,81.9,750.6)" >CP6</text>
<path d="M142.468,738.895 A430.000,430.000 40.000 0,1 120.774,702.701 L103.135,712.129 A450.000,450.000 0.000 0,0 125.839,750.007 Z" style="stroke-width:2.0;stroke:rgb(115,115,115);stroke-linecap:round;fill:none;" />
<path d="M120.774,702.701 A430.000,430.000 40.000 0,1 102.732,664.554 L84.254,672.208 A450.000,450.000 0.000 0,0 103.135,712.129 Z" style="stroke-width:2.0;stroke:rgb(115,115,115);stroke-linecap:round;fill:rgb(130,213,83);" />
<text x="59.3" y="708.4" font-size="20.8px" font-family="CMUBright-Roman" style="text-anchor:middle;fill:rgb(0,0,0);" transform="rotate(64.7,59.3,708.4)" >TP8</text>
<path d="M120.774,702.701 A430.000,430.000 40.000 0,1 102.732,664.554 L84.254,672.208 A450.000,450.000 0.000 0,0 103.135,712.129 Z" style="stroke-width:2.0;stroke:rgb(115,115,115);stroke-linecap:round;fill:none;" />
<path d="M102.732,664.554 A430.000,430.000 40.000 0,1 88.516,624.822 L69.377,630.628 A450.000,450.000 0.000 0,0 84.254,672.208 Z" style="stroke-width:2.0;stroke:rgb(115,115,115);stroke-linecap:round;fill:rgb(248,218,88);" />
<text x="41.0" y="664.2" font-size="20.8px" font-family="CMUBright-Roman" style="text-anchor:middle;fill:rgb(0,0,0);" transform="rotate(70.3,41.0,664.2)" >P9</text>
<path d="M102.732,664.554 A430.000,430.000 40.000 0,1 88.516,624.822 L69.377,630.628 A450.000,450.000 0.000 0,0 84.254,672.208 Z" style="stroke-width:2.0;stroke:rgb(115,115,115);stroke-linecap:round;fill:none;" />
<path d="M88.516,624.822 A430.000,430.000 40.000 0,1 78.262,583.889 L58.647,587.791 A450.000,450.000 0.000 0,0 69.377,630.628 Z" style="stroke-width:2.0;stroke:rgb(115,115,115);stroke-linecap:round;fill:rgb(248,218,88);" />
<text x="27.1" y="618.5" font-size="20.8px" font-family="CMUBright-Roman" style="text-anchor:middle;fill:rgb(0,0,0);" transform="rotate(75.9,27.1,618.5)" >P7</text>
<path d="M88.516,624.822 A430.000,430.000 40.000 0,1 78.262,583.889 L58.647,587.791 A450.000,450.000 0.000 0,0 69.377,630.628 Z" style="stroke-width:2.0;stroke:rgb(115,115,115);stroke-linecap:round;fill:none;" />
<path d="M78.262,583.889 A430.000,430.000 40.000 0,1 72.071,542.147 L52.167,544.108 A450.000,450.000 0.000 0,0 58.647,587.791 Z" style="stroke-width:2.0;stroke:rgb(115,115,115);stroke-linecap:round;fill:rgb(248,218,88);" />
<text x="17.8" y="571.5" font-size="20.8px" font-family="CMUBright-Roman" style="text-anchor:middle;fill:rgb(0,0,0);" transform="rotate(81.6,17.8,571.5)" >P5</text>
<path d="M78.262,583.889 A430.000,430.000 40.000 0,1 72.071,542.147 L52.167,544.108 A450.000,450.000 0.000 0,0 58.647,587.791 Z" style="stroke-width:2.0;stroke:rgb(115,115,115);stroke-linecap:round;fill:none;" />
<path d="M72.071,542.147 A430.000,430.000 40.000 0,1 70.000,500.000 L50.000,500.000 A450.000,450.000 0.000 0,0 52.167,544.108 Z" style="stroke-width:2.0;stroke:rgb(115,115,115);stroke-linecap:round;fill:rgb(248,218,88);" />
<text x="13.1" y="523.9" font-size="20.8px" font-family="CMUBright-Roman" style="text-anchor:middle;fill:rgb(0,0,0);" transform="rotate(87.2,13.1,523.9)" >P3</text>
<path d="M72.071,542.147 A430.000,430.000 40.000 0,1 70.000,500.000 L50.000,500.000 A450.000,450.000 0.000 0,0 52.167,544.108 Z" style="stroke-width:2.0;stroke:rgb(115,115,115);stroke-linecap:round;fill:none;" />
<path d="M70.000,500.000 A430.000,430.000 40.000 0,1 72.071,457.853 L52.167,455.892 A450.000,450.000 0.000 0,0 50.000,500.000 Z" style="stroke-width:2.0;stroke:rgb(115,115,115);stroke-linecap:round;fill:rgb(248,218,88);" />
<text x="29.1" y="476.9" font-size="20.8px" font-family="CMUBright-Roman" style="text-anchor:middle;fill:rgb(0,0,0);" transform="rotate(-87.2,29.1,476.9)" >P1</text>
<path d="M70.000,500.000 A430.000,430.000 40.000 0,1 72.071,457.853 L52.167,455.892 A450.000,450.000 0.000 0,0 50.000,500.000 Z" style="stroke-width:2.0;stroke:rgb(115,115,115);stroke-linecap:round;fill:none;" />
<path d="M72.071,457.853 A430.000,430.000 40.000 0,1 78.262,416.111 L58.647,412.209 A450.000,450.000 0.000 0,0 52.167,455.892 Z" style="stroke-width:2.0;stroke:rgb(115,115,115);stroke-linecap:round;fill:rgb(248,218,88);" />
<text x="33.6" y="430.8" font-size="20.8px" font-family="CMUBright-Roman" style="text-anchor:middle;fill:rgb(0,0,0);" transform="rotate(-81.6,33.6,430.8)" >Pz</text>
<path d="M72.071,457.853 A430.000,430.000 40.000 0,1 78.262,416.111 L58.647,412.209 A450.000,450.000 0.000 0,0 52.167,455.892 Z" style="stroke-width:2.0;stroke:rgb(115,115,115);stroke-linecap:round;fill:none;" />
<path d="M78.262,416.111 A430.000,430.000 40.000 0,1 88.516,375.178 L69.377,369.372 A450.000,450.000 0.000 0,0 58.647,412.209 Z" style="stroke-width:2.0;stroke:rgb(115,115,115);stroke-linecap:round;fill:rgb(248,218,88);" />
<text x="42.6" y="385.4" font-size="20.8px" font-family="CMUBright-Roman" style="text-anchor:middle;fill:rgb(0,0,0);" transform="rotate(-75.9,42.6,385.4)" >P2</text>
<path d="M78.262,416.111 A430.000,430.000 40.000 0,1 88.516,375.178 L69.377,369.372 A450.000,450.000 0.000 0,0 58.647,412.209 Z" style="stroke-width:2.0;stroke:rgb(115,115,115);stroke-linecap:round;fill:none;" />
<path d="M88.516,375.178 A430.000,430.000 40.000 0,1 102.732,335.446 L84.254,327.792 A450.000,450.000 0.000 0,0 69.377,369.372 Z" style="stroke-width:2.0;stroke:rgb(115,115,115);stroke-linecap:round;fill:rgb(248,218,88);" />
<text x="56.1" y="341.2" font-size="20.8px" font-family="CMUBright-Roman" style="text-anchor:middle;fill:rgb(0,0,0);" transform="rotate(-70.3,56.1,341.2)" >P4</text>
<path d="M88.516,375.178 A430.000,430.000 40.000 0,1 102.732,335.446 L84.254,327.792 A450.000,450.000 0.000 0,0 69.377,369.372 Z" style="stroke-width:2.0;stroke:rgb(115,115,115);stroke-linecap:round;fill:none;" />
<path d="M102.732,335.446 A430.000,430.000 40.000 0,1 120.774,297.299 L103.135,287.871 A450.000,450.000 0.000 0,0 84.254,327.792 Z" style="stroke-width:2.0;stroke:rgb(115,115,115);stroke-linecap:round;fill:rgb(248,218,88);" />
<text x="73.8" y="298.4" font-size="20.8px" font-family="CMUBright-Roman" style="text-anchor:middle;fill:rgb(0,0,0);" transform="rotate(-64.7,73.8,298.4)" >P6</text>
<path d="M102.732,335.446 A430.000,430.000 40.000 0,1 120.774,297.299 L103.135,287.871 A450.000,450.000 0.000 0,0 84.254,327.792 Z" style="stroke-width:2.0;stroke:rgb(115,115,115);stroke-linecap:round;fill:none;" />
<path d="M120.774,297.299 A430.000,430.000 40.000 0,1 142.468,261.105 L125.839,249.993 A450.000,450.000 0.000 0,0 103.135,287.871 Z" style="stroke-width:2.0;stroke:rgb(115,115,115);stroke-linecap:round;fill:rgb(248,218,88);" />
<text x="95.6" y="257.6" font-size="20.8px" font-family="CMUBright-Roman" style="text-anchor:middle;fill:rgb(0,0,0);" transform="rotate(-59.1,95.6,257.6)" >P8</text>
<path d="M120.774,297.299 A430.000,430.000 40.000 0,1 142.468,261.105 L125.839,249.993 A450.000,450.000 0.000 0,0 103.135,287.871 Z" style="stroke-width:2.0;stroke:rgb(115,115,115);stroke-linecap:round;fill:none;" />
<path d="M142.468,261.105 A430.000,430.000 40.000 0,1 167.606,227.211 L152.145,214.523 A450.000,450.000 0.000 0,0 125.839,249.993 Z" style="stroke-width:2.0;stroke:rgb(115,115,115);stroke-linecap:round;fill:rgb(248,218,88);" />
<text x="121.3" y="219.1" font-size="20.8px" font-family="CMUBright-Roman" style="text-anchor:middle;fill:rgb(0,0,0);" transform="rotate(-53.4,121.3,219.1)" >P10</text>
<path d="M142.468,261.105 A430.000,430.000 40.000 0,1 167.606,227.211 L152.145,214.523 A450.000,450.000 0.000 0,0 125.839,249.993 Z" style="stroke-width:2.0;stroke:rgb(115,115,115);stroke-linecap:round;fill:none;" />
<path d="M167.606,227.211 A430.000,430.000 40.000 0,1 195.944,195.944 L181.802,181.802 A450.000,450.000 0.000 0,0 152.145,214.523 Z" style="stroke-width:2.0;stroke:rgb(115,115,115);stroke-linecap:round;fill:rgb(248,218,88);" />
<text x="150.6" y="183.4" font-size="20.8px" font-family="CMUBright-Roman" style="text-anchor:middle;fill:rgb(0,0,0);" transform="rotate(-47.8,150.6,183.4)" >PO7</text>
<path d="M167.606,227.211 A430.000,430.000 40.000 0,1 195.944,195.944 L181.802,181.802 A450.000,450.000 0.000 0,0 152.145,214.523 Z" style="stroke-width:2.0;stroke:rgb(115,115,115);stroke-linecap:round;fill:none;" />
<path d="M195.944,195.944 A430.000,430.000 40.000 0,1 227.211,167.606 L214.523,152.145 A450.000,450.000 0.000 0,0 181.802,181.802 Z" style="stroke-width:2.0;stroke:rgb(115,115,115);stroke-linecap:round;fill:rgb(248,218,88);" />
<text x="183.4" y="150.6" font-size="20.8px" font-family="CMUBright-Roman" style="text-anchor:middle;fill:rgb(0,0,0);" transform="rotate(-42.2,183.4,150.6)" >PO3</text>
<path d="M195.944,195.944 A430.000,430.000 40.000 0,1 227.211,167.606 L214.523,152.145 A450.000,450.000 0.000 0,0 181.802,181.802 Z" style="stroke-width:2.0;stroke:rgb(115,115,115);stroke-linecap:round;fill:none;" />
<path d="M227.211,167.606 A430.000,430.000 40.000 0,1 261.105,142.468 L249.993,125.839 A450.000,450.000 0.000 0,0 214.523,152.145 Z" style="stroke-width:2.0;stroke:rgb(115,115,115);stroke-linecap:round;fill:rgb(248,218,88);" />
<text x="219.1" y="121.3" font-size="20.8px" font-family="CMUBright-Roman" style="text-anchor:middle;fill:rgb(0,0,0);" transform="rotate(-36.6,219.1,121.3)" >POz</text>
<path d="M227.211,167.606 A430.000,430.000 40.000 0,1 261.105,142.468 L249.993,125.839 A450.000,450.000 0.000 0,0 214.523,152.145 Z" style="stroke-width:2.0;stroke:rgb(115,115,115);stroke-linecap:round;fill:none;" />
<path d="M261.105,142.468 A430.000,430.000 40.000 0,1 297.299,120.774 L287.871,103.135 A450.000,450.000 0.000 0,0 249.993,125.839 Z" style="stroke-width:2.0;stroke:rgb(115,115,115);stroke-linecap:round;fill:rgb(248,218,88);" />
<text x="257.6" y="95.6" font-size="20.8px" font-family="CMUBright-Roman" style="text-anchor:middle;fill:rgb(0,0,0);" transform="rotate(-30.9,257.6,95.6)" >PO4</text>
<path d="M261.105,142.468 A430.000,430.000 40.000 0,1 297.299,120.774 L287.871,103.135 A450.000,450.000 0.000 0,0 249.993,125.839 Z" style="stroke-width:2.0;stroke:rgb(115,115,115);stroke-linecap:round;fill:none;" />
<path d="M297.299,120.774 A430.000,430.000 40.000 0,1 335.446,102.732 L327.792,84.254 A450.000,450.000 0.000 0,0 287.871,103.135 Z" style="stroke-width:2.0;stroke:rgb(115,115,115);stroke-linecap:round;fill:rgb(248,218,88);" />
<text x="298.4" y="73.8" font-size="20.8px" font-family="CMUBright-Roman" style="text-anchor:middle;fill:rgb(0,0,0);" transform="rotate(-25.3,298.4,73.8)" >PO8</text>
<path d="M297.299,120.774 A430.000,430.000 40.000 0,1 335.446,102.732 L327.792,84.254 A450.000,450.000 0.000 0,0 287.871,103.135 Z" style="stroke-width:2.0;stroke:rgb(115,115,115);stroke-linecap:round;fill:none;" />
<path d="M335.446,102.732 A430.000,430.000 40.000 0,1 375.178,88.516 L369.372,69.377 A450.000,450.000 0.000 0,0 327.792,84.254 Z" style="stroke-width:2.0;stroke:rgb(115,115,115);stroke-linecap:round;fill:rgb(248,218,88);" />
<text x="341.2" y="56.1" font-size="20.8px" font-family="CMUBright-Roman" style="text-anchor:middle;fill:rgb(0,0,0);" transform="rotate(-19.7,341.2,56.1)" >O1</text>
<path d="M335.446,102.732 A430.000,430.000 40.000 0,1 375.178,88.516 L369.372,69.377 A450.000,450.000 0.000 0,0 327.792,84.254 Z" style="stroke-width:2.0;stroke:rgb(115,115,115);stroke-linecap:round;fill:none;" />
<path d="M375.178,88.516 A430.000,430.000 40.000 0,1 416.111,78.262 L412.209,58.647 A450.000,450.000 0.000 0,0 369.372,69.377 Z" style="stroke-width:2.0;stroke:rgb(115,115,115);stroke-linecap:round;fill:rgb(248,218,88);" />
<text x="385.4" y="42.6" font-size="20.8px" font-family="CMUBright-Roman" style="text-anchor:middle;fill:rgb(0,0,0);" transform="rotate(-14.1,385.4,42.6)" >Oz</text>
<path d="M375.178,88.516 A430.000,430.000 40.000 0,1 416.111,78.262 L412.209,58.647 A450.000,450.000 0.000 0,0 369.372,69.377 Z" style="stroke-width:2.0;stroke:rgb(115,115,115);stroke-linecap:round;fill:none;" />
<path d="M416.111,78.262 A430.000,430.000 40.000 0,1 457.853,72.071 L455.892,52.167 A450.000,450.000 0.000 0,0 412.209,58.647 Z" style="stroke-width:2.0;stroke:rgb(115,115,115);stroke-linecap:round;fill:rgb(248,218,88);" />
<text x="430.8" y="33.6" font-size="20.8px" font-family="CMUBright-Roman" style="text-anchor:middle;fill:rgb(0,0,0);" transform="rotate(-8.4,430.8,33.6)" >O2</text>
<path d="M416.111,78.262 A430.000,430.000 40.000 0,1 457.853,72.071 L455.892,52.167 A450.000,450.000 0.000 0,0 412.209,58.647 Z" style="stroke-width:2.0;stroke:rgb(115,115,115);stroke-linecap:round;fill:none;" />
<path d="M457.853,72.071 A430.000,430.000 40.000 0,1 500.000,70.000 L500.000,50.000 A450.000,450.000 0.000 0,0 455.892,52.167 Z" style="stroke-width:2.0;stroke:rgb(115,115,115);stroke-linecap:round;fill:rgb(248,218,88);" />
<text x="476.9" y="29.1" font-size="20.8px" font-family="CMUBright-Roman" style="text-anchor:middle;fill:rgb(0,0,0);" transform="rotate(-2.8,476.9,29.1)" >Iz</text>
<path d="M457.853,72.071 A430.000,430.000 40.000 0,1 500.000,70.000 L500.000,50.000 A450.000,450.000 0.000 0,0 455.892,52.167 Z" style="stroke-width:2.0;stroke:rgb(115,115,115);stroke-linecap:round;fill:none;" />
</g>
<g id="track_0">
<path d="M 104.580,663.789 A 428.000,428.000 0.00 0,1 90.4,624.2 L 90.4,624.2 106.7,619.1 122.7,613.7 138.6,608.0 154.1,601.9 169.2,595.4 183.8,588.7 197.8,581.7 211.2,574.3 223.8,566.6 235.6,558.7 246.5,550.4 256.5,541.9 265.6,533.1 273.7,524.0 280.7,514.7 286.7,505.2 291.6,495.4 295.4,485.5 298.1,475.3 299.6,465.0 300.0,454.5 299.3,443.9 297.4,433.1 294.5,422.3 290.4,411.3 285.3,400.3 279.2,389.2 272.1,378.2 264.0,367.1 255.0,356.1 245.2,345.1 234.5,334.1 223.2,323.3 211.2,312.6 198.6,302.1 185.5,291.8 172.0,281.7 158.2,271.8 144.1,262.2  A 428.000,428.000 0.00 0,1 169.2,228.5 L 169.2,228.5 182.4,239.6 195.4,251.0 208.0,262.7 220.2,274.7 232.0,286.9 243.1,299.3 253.6,311.8 263.4,324.5 272.4,337.3 280.6,350.2 287.9,363.2 294.3,376.1 299.8,389.1 304.3,402.0 307.7,414.9 310.2,427.8 311.5,440.5 311.9,453.2 311.1,465.7 309.3,478.0 306.4,490.2 302.4,502.2 297.4,514.0 291.3,525.6 284.3,536.9 276.2,548.0 267.2,558.8 257.3,569.4 246.6,579.6 235.0,589.6 222.6,599.2 209.6,608.5 195.9,617.5 181.6,626.1 166.9,634.4 151.7,642.3 136.2,649.8 120.5,657.0 104.6,663.8  Z" style="stroke-width: 0.0;  fill: rgb(201,0,0);" />
<path d="M 737.784,855.869 A 428.000,428.000 0.00 0,1 701.8,877.5 L 701.8,877.5 693.7,862.7 685.5,848.2 677.0,833.9 668.4,820.1 659.6,806.7 650.7,794.0 641.7,781.9 632.7,770.5 623.6,760.0 614.5,750.3 605.4,741.5 596.4,733.7 587.3,727.0 578.4,721.3 569.5,716.7 560.8,713.3 552.1,711.0 543.6,709.8 535.3,709.9 527.1,711.1 519.1,713.5 511.3,717.0 503.7,721.7 496.4,727.6 489.2,734.5 482.3,742.6 475.6,751.6 469.2,761.7 463.1,772.7 457.2,784.6 451.5,797.4 446.2,810.9 441.1,825.1 436.3,839.9 431.8,855.2 427.6,870.9 423.6,887.0 419.9,903.3 416.5,919.8  A 428.000,428.000 0.00 0,1 375.8,909.6 L 375.8,909.6 380.9,893.3 386.3,877.3 392.0,861.4 398.1,845.9 404.6,830.8 411.3,816.2 418.3,802.2 425.7,788.8 433.4,776.2 441.3,764.4 449.6,753.5 458.1,743.5 466.9,734.4 476.0,726.3 485.3,719.3 494.8,713.3 504.6,708.4 514.5,704.6 524.7,701.9 535.0,700.4 545.5,700.0 556.1,700.7 566.9,702.6 577.7,705.5 588.7,709.6 599.7,714.7 610.8,720.8 621.8,727.9 632.9,736.0 643.9,745.0 654.9,754.8 665.9,765.5 676.7,776.8 687.4,788.8 697.9,801.4 708.2,814.5 718.3,828.0 728.2,841.8 737.8,855.9  Z" style="stroke-width: 0.0;  fill: rgb(201,0,0); opacity: 0.472;" />
<path d="M 336.211,104.580 A 428.000,428.000 0.00 0,1 375.8,90.4 L 375.8,90.4 380.6,106.2 385.4,121.8 390.1,137.1 394.9,152.1 399.5,166.6 404.0,180.6 408.4,194.0 412.7,206.6 416.8,218.4 420.6,229.3 424.3,239.3 427.7,248.3 430.9,256.2 433.8,263.0 436.5,268.7 438.9,273.3 440.9,276.6 442.7,278.8 444.2,279.7 445.4,279.4 446.2,277.9 446.8,275.2 447.1,271.2 447.0,266.1 446.6,259.8 446.0,252.4 445.1,243.9 443.9,234.4 442.4,223.8 440.6,212.4 438.7,200.1 436.5,186.9 434.1,173.1 431.5,158.6 428.7,143.6 425.8,128.2 422.8,112.4 419.7,96.4 416.5,80.2  A 428.000,428.000 0.00 0,1 458.0,74.1 L 458.0,74.1 459.6,90.5 461.0,106.8 462.3,122.9 463.3,138.7 464.2,154.1 464.8,168.9 465.2,183.1 465.3,196.7 465.1,209.4 464.7,221.3 464.0,232.3 463.0,242.3 461.6,251.3 460.0,259.2 458.1,266.0 455.8,271.6 453.2,276.1 450.3,279.4 447.1,281.5 443.6,282.4 439.8,282.1 435.7,280.5 431.3,277.8 426.7,273.8 421.7,268.8 416.6,262.6 411.2,255.3 405.6,246.9 399.7,237.6 393.8,227.3 387.6,216.1 381.4,204.1 375.0,191.4 368.5,178.0 362.1,164.1 355.5,149.7 349.0,134.9 342.6,119.8 336.2,104.6  Z" style="stroke-width: 0.0;  fill: rgb(201,0,0); opacity: 0.485;" />
<path d="M 830.848,228.480 A 428.000,428.000 0.00 0,1 855.9,262.2 L 855.9,262.2 839.6,272.9 823.0,283.3 806.0,293.5 788.7,303.4 771.0,313.0 753.1,322.2 734.9,331.1 716.5,339.5 697.8,347.5 678.8,355.0 659.6,362.0 640.3,368.6 620.7,374.6 601.0,380.1 581.1,385.0 561.1,389.3 540.9,393.1 520.7,396.3 500.3,398.9 479.9,400.9 459.5,402.3 439.0,403.1 418.5,403.4 398.0,403.0 377.6,402.1 357.2,400.5 336.8,398.5 316.5,395.8 296.3,392.7 276.3,389.0 256.4,384.8 236.6,380.2 217.1,375.0 197.7,369.5 178.5,363.5 159.6,357.2 141.0,350.5 122.6,343.5 104.6,336.2  A 428.000,428.000 0.00 0,1 122.5,298.2 L 122.5,298.2 139.4,307.0 156.6,315.5 174.1,323.7 191.9,331.4 210.0,338.8 228.3,345.7 246.8,352.1 265.6,358.0 284.5,363.3 303.6,368.0 322.8,372.2 342.1,375.7 361.5,378.6 381.0,380.8 400.5,382.4 420.0,383.3 439.5,383.5 459.1,382.9 478.5,381.7 498.0,379.8 517.3,377.2 536.6,373.9 555.7,369.9 574.7,365.2 593.5,359.9 612.2,353.9 630.6,347.3 648.9,340.1 666.9,332.3 684.7,323.9 702.2,314.9 719.4,305.5 736.4,295.6 753.0,285.3 769.3,274.6 785.2,263.5 800.8,252.1 816.0,240.4 830.8,228.5  Z" style="stroke-width: 0.0;  fill: rgb(201,0,0); opacity: 0.701;" />
<path d="M 925.939,458.049 A 428.000,428.000 0.00 0,1 928.0,500.0 L 928.0,500.0 906.6,500.0 885.0,500.2 863.5,500.4 841.8,500.7 820.1,501.1 798.4,501.6 776.6,502.3 754.7,503.0 732.8,503.8 710.9,504.8 689.0,505.9 667.0,507.0 645.0,508.3 623.0,509.8 601.0,511.3 579.0,513.0 557.0,514.8 535.0,516.7 513.0,518.8 491.0,520.9 469.0,523.2 447.0,525.6 425.0,528.2 403.1,530.8 381.2,533.6 359.4,536.5 337.6,539.5 315.8,542.6 294.1,545.8 272.4,549.2 250.8,552.6 229.2,556.2 207.7,559.8 186.3,563.5 164.9,567.4 143.6,571.3 122.4,575.3 101.3,579.4 80.2,583.5  A 428.000,428.000 0.00 0,1 74.1,542.0 L 74.1,542.0 95.9,539.8 117.7,537.6 139.6,535.5 161.4,533.3 183.3,531.2 205.1,529.0 227.0,526.9 248.8,524.7 270.6,522.6 292.5,520.4 314.3,518.3 336.2,516.1 358.0,514.0 379.9,511.8 401.7,509.7 423.5,507.5 445.4,505.4 467.2,503.2 489.1,501.1 510.9,498.9 532.8,496.8 554.6,494.6 576.5,492.5 598.3,490.3 620.1,488.2 642.0,486.0 663.8,483.9 685.7,481.7 707.5,479.6 729.4,477.4 751.2,475.3 773.0,473.1 794.9,471.0 816.7,468.8 838.6,466.7 860.4,464.5 882.3,462.4 904.1,460.2 925.9,458.0  Z" style="stroke-width: 0.0;  fill: rgb(201,0,0); opacity: 0.701;" />
<path d="M 541.951,74.061 A 428.000,428.000 0.00 0,1 583.5,80.2 L 583.5,80.2 580.0,96.9 576.2,113.4 572.0,129.8 567.5,145.8 562.6,161.5 557.3,176.7 551.6,191.3 545.6,205.3 539.2,218.6 532.5,231.1 525.3,242.8 517.8,253.6 510.0,263.5 501.7,272.4 493.2,280.4 484.3,287.2 475.0,293.1 465.5,297.8 455.7,301.5 445.5,304.0 435.1,305.4 424.5,305.7 413.6,305.0 402.5,303.1 391.2,300.1 379.7,296.1 368.1,291.1 356.4,285.1 344.6,278.1 332.7,270.3 320.8,261.6 308.9,252.1 297.0,241.8 285.2,230.9 273.5,219.4 262.0,207.4 250.6,195.0 239.4,182.2 228.5,169.2  A 428.000,428.000 0.00 0,1 262.2,144.1 L 262.2,144.1 271.7,158.0 281.3,171.7 291.1,185.0 301.1,197.9 311.1,210.4 321.2,222.2 331.3,233.4 341.4,243.8 351.5,253.4 361.5,262.2 371.4,270.0 381.2,276.8 390.8,282.7 400.3,287.4 409.6,291.1 418.6,293.7 427.4,295.2 436.0,295.5 444.3,294.6 452.3,292.6 460.0,289.5 467.4,285.1 474.5,279.7 481.3,273.2 487.7,265.5 493.8,256.9 499.6,247.2 505.0,236.5 510.0,225.0 514.7,212.5 519.1,199.3 523.1,185.3 526.7,170.7 530.1,155.5 533.1,139.8 535.7,123.7 538.1,107.4 540.2,90.8 542.0,74.1  Z" style="stroke-width: 0.0;  fill: rgb(201,0,0); opacity: 0.964;" />
<path d="M 737.784,144.131 A 428.000,428.000 0.00 0,1 771.5,169.2 L 771.5,169.2 758.8,184.8 746.2,200.9 733.8,217.2 721.5,233.8 709.4,250.7 697.5,267.9 685.9,285.3 674.5,303.1 663.3,321.1 652.5,339.4 641.9,357.9 631.7,376.6 621.8,395.6 612.3,414.8 603.1,434.2 594.3,453.8 585.9,473.6 577.8,493.5 570.2,513.7 562.9,533.9 556.1,554.4 549.6,574.9 543.6,595.5 538.0,616.3 532.8,637.1 527.9,658.0 523.5,678.9 519.6,699.9 516.0,720.9 512.8,741.9 509.9,762.9 507.5,783.8 505.4,804.7 503.7,825.6 502.3,846.3 501.3,866.9 500.6,887.5 500.1,907.8 500.0,928.0  A 428.000,428.000 0.00 0,1 458.0,925.9 L 458.0,925.9 460.2,905.4 462.5,884.7 465.1,863.8 467.9,842.9 471.0,822.0 474.4,800.9 478.0,779.8 481.9,758.7 486.0,737.6 490.5,716.4 495.2,695.2 500.2,674.1 505.6,652.9 511.2,631.8 517.1,610.8 523.3,589.8 529.8,568.9 536.6,548.0 543.7,527.3 551.1,506.6 558.8,486.1 566.8,465.7 575.0,445.4 583.5,425.2 592.3,405.2 601.3,385.3 610.6,365.6 620.2,346.1 629.9,326.7 639.9,307.5 650.1,288.5 660.5,269.7 671.1,251.1 681.9,232.7 692.8,214.6 703.9,196.6 715.1,178.9 726.4,161.4 737.8,144.1  Z" style="stroke-width: 0.0;  fill: rgb(201,0,0); opacity: 0.969;" />
<path d="M 663.789,104.580 A 428.000,428.000 0.00 0,1 701.8,122.5 L 701.8,122.5 692.6,140.0 683.7,157.8 675.0,175.8 666.7,194.2 658.6,212.9 650.9,231.8 643.6,250.9 636.6,270.3 630.1,289.9 624.0,309.7 618.3,329.6 613.2,349.8 608.5,370.1 604.3,390.5 600.6,411.0 597.4,431.7 594.8,452.4 592.7,473.2 591.1,494.0 590.1,514.9 589.6,535.8 589.7,556.7 590.3,577.6 591.4,598.4 593.1,619.2 595.2,639.9 597.9,660.6 601.1,681.1 604.7,701.6 608.9,721.8 613.4,742.0 618.5,762.0 623.9,781.7 629.7,801.3 635.9,820.6 642.4,839.8 649.3,858.6 656.4,877.2 663.8,895.4  A 428.000,428.000 0.00 0,1 624.2,909.6 L 624.2,909.6 618.5,890.2 613.0,870.6 607.7,850.8 602.8,830.7 598.0,810.5 593.6,790.0 589.6,769.4 585.8,748.7 582.4,727.8 579.4,706.8 576.7,685.6 574.5,664.4 572.6,643.1 571.1,621.7 570.1,600.3 569.4,578.8 569.2,557.3 569.4,535.7 570.1,514.2 571.1,492.7 572.6,471.2 574.5,449.8 576.8,428.4 579.6,407.1 582.7,385.9 586.3,364.7 590.2,343.7 594.6,322.8 599.3,302.0 604.4,281.4 609.8,260.9 615.5,240.6 621.6,220.5 628.0,200.6 634.7,180.9 641.6,161.5 648.8,142.3 656.2,123.3 663.8,104.6  Z" style="stroke-width: 0.0;  fill: rgb(201,0,0); opacity: 0.969;" />
<path d="M 877.462,298.242 A 428.000,428.000 0.00 0,1 895.4,336.2 L 895.4,336.2 876.7,343.8 857.7,351.2 838.5,358.4 819.1,365.3 799.4,372.0 779.5,378.4 759.4,384.5 739.1,390.2 718.6,395.6 698.0,400.7 677.2,405.4 656.3,409.8 635.3,413.7 614.1,417.3 592.9,420.4 571.6,423.2 550.2,425.5 528.8,427.4 507.3,428.9 485.8,429.9 464.3,430.6 442.7,430.8 421.2,430.6 399.7,429.9 378.3,428.9 356.9,427.4 335.6,425.5 314.4,423.3 293.2,420.6 272.2,417.6 251.3,414.2 230.6,410.4 210.0,406.4 189.5,402.0 169.3,397.2 149.2,392.3 129.4,387.0 109.8,381.5 90.4,375.8  A 428.000,428.000 0.00 0,1 104.6,336.2 L 104.6,336.2 122.8,343.6 141.4,350.7 160.2,357.6 179.4,364.1 198.7,370.3 218.3,376.1 238.0,381.5 258.0,386.6 278.2,391.1 298.4,395.3 318.9,398.9 339.4,402.1 360.1,404.8 380.8,406.9 401.6,408.6 422.4,409.7 443.3,410.3 464.2,410.4 485.1,409.9 506.0,408.9 526.8,407.3 547.6,405.2 568.3,402.6 589.0,399.4 609.5,395.7 629.9,391.5 650.2,386.8 670.4,381.7 690.3,376.0 710.1,369.9 729.7,363.4 749.1,356.4 768.2,349.1 787.1,341.4 805.8,333.3 824.2,325.0 842.2,316.3 860.0,307.4 877.5,298.2  Z" style="stroke-width: 0.0;  fill: rgb(201,0,0); opacity: 1.000;" />
<path d="M 909.570,375.758 A 428.000,428.000 0.00 0,1 919.8,416.5 L 919.8,416.5 898.5,420.7 877.2,424.9 855.8,429.0 834.4,433.1 812.9,437.2 791.4,441.2 769.9,445.2 748.3,449.1 726.7,452.9 705.1,456.8 683.5,460.5 661.8,464.2 640.1,467.9 618.3,471.5 596.6,475.0 574.8,478.5 553.1,481.9 531.3,485.3 509.5,488.6 487.6,491.8 465.8,495.0 444.0,498.1 422.1,501.1 400.3,504.1 378.5,507.1 356.6,509.9 334.8,512.7 313.0,515.5 291.2,518.2 269.4,520.8 247.6,523.4 225.8,525.9 204.1,528.3 182.3,530.7 160.6,533.1 138.9,535.4 117.3,537.6 95.7,539.8 74.1,542.0  A 428.000,428.000 0.00 0,1 72.0,500.0 L 72.0,500.0 93.2,499.9 114.5,499.7 135.9,499.4 157.3,498.9 178.9,498.3 200.5,497.6 222.2,496.6 243.9,495.5 265.7,494.3 287.5,492.8 309.4,491.2 331.2,489.5 353.2,487.5 375.1,485.4 397.0,483.0 418.9,480.5 440.9,477.8 462.8,475.0 484.7,471.9 506.5,468.7 528.4,465.2 550.2,461.6 571.9,457.8 593.6,453.9 615.3,449.7 636.9,445.4 658.4,440.9 679.9,436.3 701.3,431.5 722.6,426.5 743.8,421.4 764.9,416.1 785.9,410.7 806.8,405.2 827.6,399.5 848.3,393.7 868.8,387.8 889.3,381.9 909.6,375.8  Z" style="stroke-width: 0.0;  fill: rgb(201,0,0); opacity: 1.000;" />
</g>
<defs>
<pattern id="hline-sparse" width="10" height="10" patternTransform="rotate(0 0 0)" patternUnits="userSpaceOnUse"><line x1="0" y1="0" x2="10" y2="0" style="stroke:black;stroke-width:2" /></pattern>
<pattern id="checker" width="10" height="10" patternTransform="rotate(45 0 0)" patternUnits="userSpaceOnUse"><line x1="0" y1="0" x2="10" y2="0" style="stroke:black;stroke-width:2" /><line x1="0" y1="0" x2="0" y2="10" style="stroke:black;stroke-width:2" /></pattern>
<pattern id="vline" width="10" height="10" patternTransform="rotate(0 0 0)" patternUnits="userSpaceOnUse"><line x1="0" y1="0" x2="0" y2="10" style="stroke:black;stroke-width:5" /></pattern>
<pattern id="hline" width="10" height="10" patternTransform="rotate(0 0 0)" patternUnits="userSpaceOnUse"><line x1="0" y1="0" x2="10" y2="0" style="stroke:black;stroke-width:5" /></pattern>
<pattern id="checker" width="10" height="10" patternTransform="rotate(45 0 0)" patternUnits="userSpaceOnUse"><line x1="0" y1="0" x2="10" y2="0" style="stroke:black;stroke-width:5" /><line x1="0" y1="0" x2="0" y2="10" style="stroke:black;stroke-width:4" /></pattern>
<pattern id="vline-sparse" width="10" height="10" patternTransform="rotate(0 0 0)" patternUnits="userSpaceOnUse"><line x1="0" y1="0" x2="0" y2="10" style="stroke:black;stroke-width:2" /></pattern>
</defs>
</svg>
